<?xml version="1.0" encoding="utf-8"?>
<!-- Generator: Adobe Illustrator 19.2.1, SVG Export Plug-In . SVG Version: 6.00 Build 0)  -->
<svg version="1.1" id="Layer_1" xmlns="http://www.w3.org/2000/svg" xmlns:xlink="http://www.w3.org/1999/xlink" x="0px" y="0px"
	 width="256px" height="256px" viewBox="0 0 256 256" style="enable-background:new 0 0 256 256;" xml:space="preserve">
<path d="M228.7,104H94.6l48-48c4.4-4.4,4.4-11.6,0-16l-16-16c-4.4-4.4-11.6-4.4-16,0l-88,88c-8.8,8.8-8.8,23.2,0,32l88,88
	c4.4,4.4,11.6,4.4,16,0l16-16c4.4-4.4,4.4-11.6,0-16l-48-48h134.1c6.2,0,11.3-5.1,11.3-11.3v-25.4C240,109.1,234.9,104,228.7,104z"
	/>
</svg>
