<?xml version="1.0" encoding="utf-8"?>
<!-- Generator: Adobe Illustrator 19.2.1, SVG Export Plug-In . SVG Version: 6.00 Build 0)  -->
<svg version="1.1" id="Layer_1" xmlns="http://www.w3.org/2000/svg" xmlns:xlink="http://www.w3.org/1999/xlink" x="0px" y="0px"
	 width="256px" height="256px" viewBox="0 0 256 256" style="enable-background:new 0 0 256 256;" xml:space="preserve">
<path d="M27.3,152h134.1l-48,48c-4.4,4.4-4.4,11.6,0,16l16,16c4.4,4.4,11.6,4.4,16,0l88-88c8.8-8.8,8.8-23.2,0-32l-88-88
	c-4.4-4.4-11.6-4.4-16,0l-16,16c-4.4,4.4-4.4,11.6,0,16l48,48H27.3c-6.2,0-11.3,5.1-11.3,11.3v25.4C16,146.9,21.1,152,27.3,152z"/>
</svg>
