<?xml version="1.0" encoding="utf-8"?>
<!-- Generator: Adobe Illustrator 19.2.1, SVG Export Plug-In . SVG Version: 6.00 Build 0)  -->
<svg version="1.1" id="Layer_1" xmlns="http://www.w3.org/2000/svg" xmlns:xlink="http://www.w3.org/1999/xlink" x="0px" y="0px"
	 width="256px" height="256px" viewBox="0 0 256 256" style="enable-background:new 0 0 256 256;" xml:space="preserve">
<path d="M227,104h-75V29c0-7.2-5.8-13-13-13h-22c-7.2,0-13,5.8-13,13v75H29c-7.2,0-13,5.8-13,13v22c0,7.2,5.8,13,13,13h75v75
	c0,7.2,5.8,13,13,13h22c7.2,0,13-5.8,13-13v-75h75c7.2,0,13-5.8,13-13v-22C240,109.8,234.2,104,227,104z"/>
</svg>
