<svg xmlns="http://www.w3.org/2000/svg" xmlns:xlink="http://www.w3.org/1999/xlink"><defs><symbol viewBox="0 0 256 256" id="arrow-left">
<path d="M228.7,104H94.6l48-48c4.4-4.4,4.4-11.6,0-16l-16-16c-4.4-4.4-11.6-4.4-16,0l-88,88c-8.8,8.8-8.8,23.2,0,32l88,88
	c4.4,4.4,11.6,4.4,16,0l16-16c4.4-4.4,4.4-11.6,0-16l-48-48h134.1c6.2,0,11.3-5.1,11.3-11.3v-25.4C240,109.1,234.9,104,228.7,104z" />
</symbol><symbol viewBox="0 0 256 256" id="arrow-right">
<path d="M27.3,152h134.1l-48,48c-4.4,4.4-4.4,11.6,0,16l16,16c4.4,4.4,11.6,4.4,16,0l88-88c8.8-8.8,8.8-23.2,0-32l-88-88
	c-4.4-4.4-11.6-4.4-16,0l-16,16c-4.4,4.4-4.4,11.6,0,16l48,48H27.3c-6.2,0-11.3,5.1-11.3,11.3v25.4C16,146.9,21.1,152,27.3,152z" />
</symbol><symbol viewBox="0 0 256 256" id="delete">
<polygon points="16,48 48,16 128,96 208,16 240,48 160,128 240,208 208,240 128,160 48,240 16,208 96,128 " />
</symbol><symbol viewBox="0 0 256 256" id="edit">
<polygon points="53.3,139.7 53.3,174.7 88.3,174.7 181.7,81.3 146.7,46.3 " />
<path d="M209.2,40.5l-21.8-21.8c-3.6-3.6-9.6-3.6-13.2,0L156,37l35,35l18.2-18.2C212.9,50.1,212.9,44.2,209.2,40.5z" />
<rect x="16" y="202.7" width="224" height="37.3" />
</symbol><symbol viewBox="0 0 256 256" id="plus">
<path d="M227,104h-75V29c0-7.2-5.8-13-13-13h-22c-7.2,0-13,5.8-13,13v75H29c-7.2,0-13,5.8-13,13v22c0,7.2,5.8,13,13,13h75v75
	c0,7.2,5.8,13,13,13h22c7.2,0,13-5.8,13-13v-75h75c7.2,0,13-5.8,13-13v-22C240,109.8,234.2,104,227,104z" />
</symbol><symbol viewBox="0 0 200 200" id="preloader"><path d="M 100, 100	m -75, 0 a 75,75 0 1,0 150,0 a 75,75 0 1,0 -150,0 " /></symbol><symbol viewBox="0 0 500 500" id="search">
	<path clip-rule="evenodd" d="M306.39,154.09c19.628,4.543,35.244,21.259,39.787,39.523  c1.551,8.54,8.998,14.989,17.904,14.989c9.991,0,18.168-8.175,18.168-18.17c0-13.083-10.991-32.98-25.985-47.881  c-14.719-14.537-32.252-24.802-46.695-24.802c-9.991,0-18.172,8.45-18.172,18.446C291.396,145.094,297.847,152.546,306.39,154.09z   M56.629,392.312c-14.09,14.08-14.09,36.979,0,51.059c14.08,14.092,36.981,14.092,50.965,0l104.392-104.303  c24.347,15.181,53.062,23.991,83.953,23.991c87.857,0,158.995-71.142,158.995-158.999c0-87.854-71.138-158.995-158.995-158.995  c-87.856,0-158.995,71.141-158.995,158.995c0,30.802,8.819,59.606,23.992,83.953L56.629,392.312z M182.371,204.06  c0-62.687,50.875-113.568,113.568-113.568s113.569,50.881,113.569,113.568c0,62.694-50.876,113.569-113.569,113.569  S182.371,266.754,182.371,204.06z" fill-rule="evenodd" />
</symbol></defs></svg>